<?xml version="1.0" ?><svg xmlns="http://www.w3.org/2000/svg" xmlns:xlink="http://www.w3.org/1999/xlink" version="1.1" viewBox="0 0 512 512" style="enable-background:new 0 0 512 512;" xml:space="preserve"><g id="_x31_9_Boy_x2C__Profile_x2C__Avatar_x2C__User_x2C__Social"><g><path style="fill:#9DCAFC;" d="M281,11H161l13.73,27.97C150.75,41.55,131,61.84,131,87.72V171h250v-60C381,55.77,336.23,11,281,11    z"/><path style="fill:#FFFFFF;" d="M284.72,501l-16.253-59.867l16.253-48.273L331,331h40c33.14,0,60,26.86,60,60v110    C410.16,501,300.46,501,284.72,501z"/><path style="fill:#FFFFFF;" d="M81,501V391c0-33.14,26.86-60,60-60h40l46.28,61.86l9.35,53.073L227.28,501    C211.914,501,102.346,501,81,501z"/><path style="fill:#FFFFFF;" d="M227.28,331c0,4.931,0,165.282,0,170h57.44c0-4.722,0-165.08,0-170H227.28z"/><path style="fill:#FFFFFF;" d="M381,171c0,11.04-8.96,20-20,20h-21l-16.067-16.533L340,151h21C372.05,151,381,159.95,381,171z"/><path style="fill:#FFFFFF;" d="M221,273.92V311c0,19.323,15.662,35,35,35c19.363,0,35-15.714,35-35v-37.99L221,273.92z"/><path style="fill:#FFFFFF;" d="M170,151l10.467,18.667L170,191h-19c-11.04,0-20-8.96-20-20c0-11.05,8.95-20,20-20H170z"/><path style="fill:#FFFFFF;" d="M340,196c0,34.07-20.05,63.46-49,77.01c-56.194,26.375-121-14.859-121-77.01    c0-11.165,0-84.368,0-94.98c1.514,0.341,6.188,1.485,13.39,2.91v0.01c51.76,10.31,105.18,9.33,156.61-2.92    C340,111.619,340,184.84,340,196z"/><polygon style="fill:#9DCAFC;" points="331,331 341,421 284.72,392.86 284.72,331   "/><polygon style="fill:#9DCAFC;" points="227.28,331 227.28,392.86 171,421 181,331   "/><g id="XMLID_15_"><path style="fill:#4269A7;" d="M371,321h-71.118c1.852-8.164,0.818-11.375,1.118-41.882     c28.511-15.818,47.114-45.513,48.852-78.118H361c16.577,0,30-13.425,30-30v-60C391,50.346,341.654,1,281,1H161     c-7.42,0-12.225,7.788-8.977,14.407l8.185,16.674C137.128,40.251,121,62.206,121,87.72V171c0,16.576,13.426,30,30,30h9.139     c1.799,35.372,22.549,64.255,50.861,79.162c0.298,29.42-0.728,32.7,1.117,40.838H141c-38.598,0-70,31.402-70,70v110     c0,5.523,4.478,10,10,10h350c5.522,0,10-4.477,10-10V391C441,352.402,409.598,321,371,321z M329.031,403.835L294.72,386.68V341     h27.33L329.031,403.835z M189.95,341h27.33v45.68l-34.312,17.156L189.95,341z M237.28,351.951     c11.843,5.38,25.607,5.354,37.439-0.027V491H237.28V351.951z M368.068,178.069c-1.89,1.89-4.399,2.931-7.068,2.931h-11v-20h11     C369.919,161,374.324,171.814,368.068,178.069z M175.8,48.913c6.899-0.741,10.961-8.126,7.907-14.349L177.049,21H281     c49.626,0,90,40.374,90,90v31.72c-7.343-2.604-12.264-1.422-21-1.72v-39.98c0-6.478-6.058-11.22-12.317-9.728     c-53.399,12.72-109.985,12.884-163.527,0.426c-0.799-0.042-5.709-2.236-10.378,1.474c-2.387,1.897-3.777,4.779-3.777,7.828V141     c-6.911,0.266-11.803-0.833-19,1.72v-55C141,67.73,155.961,51.047,175.8,48.913z M143.932,178.069     C137.686,171.825,142.061,161,151,161h9v20h-9C148.332,181,145.821,179.959,143.932,178.069z M180,196v-82.544     c49.233,9.981,100.683,9.992,150,0.005V196C330,295.393,180,294.908,180,196z M281,287.436V311c0,13.905-11.318,25-25,25     c-13.923,0-25-11.294-25-25v-23.021C246.872,292.202,264.041,292.352,281,287.436z M91,391c0-27.57,22.43-50,50-50h28.828     l-8.766,78.896c-0.875,7.865,7.332,13.588,14.41,10.049l41.809-20.904V491H141v-50c0-5.523-4.478-10-10-10s-10,4.477-10,10v50H91     V391z M421,491h-30v-50c0-5.523-4.478-10-10-10s-10,4.477-10,10v50h-76.28v-81.96l41.809,20.904     c7.077,3.541,15.285-2.186,14.41-10.049L342.172,341H371c27.57,0,50,22.43,50,50V491z"/><path style="fill:#4269A7;" d="M278,223.655c3.313-4.418,2.418-10.686-2-14c-4.419-3.314-10.687-2.418-14,2     c-3.503,4.671-10.498,4.669-14,0c-3.313-4.418-9.582-5.313-14-2c-4.418,3.314-5.313,9.582-2,14     C243.512,239.004,266.494,238.997,278,223.655z"/><path style="fill:#4269A7;" d="M230,171v-10c0-5.523-4.478-10-10-10s-10,4.477-10,10v10c0,5.523,4.478,10,10,10     S230,176.523,230,171z"/><path style="fill:#4269A7;" d="M290,181c5.522,0,10-4.477,10-10v-10c0-5.523-4.478-10-10-10s-10,4.477-10,10v10     C280,176.523,284.478,181,290,181z"/></g></g></g><g id="Layer_1"/></svg>